<?xml version="1.0" encoding="UTF-8" standalone="no"?>
<!DOCTYPE svg PUBLIC "-//W3C//DTD SVG 1.1//EN" "http://www.w3.org/Graphics/SVG/1.1/DTD/svg11.dtd">
<svg version="1.1" xmlns="http://www.w3.org/2000/svg" xmlns:xlink="http://www.w3.org/1999/xlink" preserveAspectRatio="xMidYMid meet" viewBox="0 0 640 640" width="640" height="640"><defs><path d="M596 5.45C599.93 1.56 606.26 1.6 610.14 5.52C616.61 12.06 628.97 24.55 635.43 31.09C639.31 35.01 639.28 41.34 635.35 45.23C517.07 162.23 169.34 506.22 51.06 623.22C47.14 627.1 40.8 627.07 36.92 623.14C30.46 616.61 18.1 604.11 11.63 597.58C7.75 593.65 7.78 587.32 11.71 583.44C129.99 466.43 477.72 122.45 596 5.45Z" id="i11JEi1ZMA"></path><path d="M596 631.1C599.93 634.98 606.26 634.95 610.14 631.02C616.61 624.48 628.97 611.99 635.43 605.46C639.31 601.53 639.28 595.2 635.35 591.31C517.07 474.31 169.34 130.33 51.06 13.32C47.14 9.44 40.8 9.47 36.92 13.4C30.46 19.93 18.1 32.43 11.63 38.96C7.75 42.89 7.78 49.22 11.71 53.1C129.99 170.11 477.72 514.09 596 631.1Z" id="dubwionqY"></path></defs><g><g><g><use xlink:href="#i11JEi1ZMA" opacity="1" fill="#696969" fill-opacity="1"></use></g><g><use xlink:href="#dubwionqY" opacity="1" fill="#696969" fill-opacity="1"></use></g></g></g></svg>